HIERARCHY
ROOT hip
{
  OFFSET 11.0787 80.6991 -217.774
  CHANNELS 6 Xposition Yposition Zposition Zrotation Xrotation Yrotation
  JOINT abdomen
  {
    OFFSET 0 20.6881 -0.73152
    CHANNELS 3 Zrotation Xrotation Yrotation
    JOINT chest
    {
      OFFSET 0 11.7043 -0.48768
      CHANNELS 3 Zrotation Xrotation Yrotation
      JOINT neck
      {
        OFFSET 0 22.1894 -2.19456
        CHANNELS 3 Zrotation Xrotation Yrotation
        JOINT head
        {
          OFFSET -0.24384 7.07133 1.2192
          CHANNELS 3 Zrotation Xrotation Yrotation
          JOINT leftEye
          {
            OFFSET 4.14528 8.04674 8.04672
            CHANNELS 3 Zrotation Xrotation Yrotation
            End Site
            {
              OFFSET 1 0 0
            }
          }
          JOINT rightEye
          {
            OFFSET -3.6576 8.04674 8.04672
            CHANNELS 3 Zrotation Xrotation Yrotation
            End Site
            {
              OFFSET 1 0 0
            }
          }
        }
      }
      JOINT rCollar
      {
        OFFSET -2.68224 19.2634 -4.8768
        CHANNELS 3 Zrotation Xrotation Yrotation
        JOINT rShldr
        {
          OFFSET -8.77824 -1.95073 1.46304
          CHANNELS 3 Zrotation Xrotation Yrotation
          JOINT rForeArm
          {
            OFFSET -28.1742 -1.7115 0.48768
            CHANNELS 3 Zrotation Xrotation Yrotation
            JOINT rHand
            {
              OFFSET -22.5879 0.773209 7.07136
              CHANNELS 3 Zrotation Xrotation Yrotation
              JOINT rThumb1
              {
                OFFSET -1.2192 -0.487915 3.41376
                CHANNELS 3 Zrotation Xrotation Yrotation
                JOINT rThumb2
                {
                  OFFSET -3.37035 -0.52449 3.41376
                  CHANNELS 3 Zrotation Xrotation Yrotation
                  End Site
                  {
                    OFFSET -1.78271 -1.18214 1.43049
                  }
                }
              }
              JOINT rIndex1
              {
                OFFSET -7.75947 0.938293 5.60832
                CHANNELS 3 Zrotation Xrotation Yrotation
                JOINT rIndex2
                {
                  OFFSET -2.54057 -0.884171 1.56538
                  CHANNELS 3 Zrotation Xrotation Yrotation
                  End Site
                  {
                    OFFSET -1.62519 -0.234802 1.16502
                  }
                }
              }
              JOINT rMid1
              {
                OFFSET -8.24714 1.18213 3.41376
                CHANNELS 3 Zrotation Xrotation Yrotation
                JOINT rMid2
                {
                  OFFSET -3.10165 -0.590103 1.0647
                  CHANNELS 3 Zrotation Xrotation Yrotation
                  End Site
                  {
                    OFFSET -2.48547 -0.328903 0.83742
                  }
                }
              }
              JOINT rRing1
              {
                OFFSET -8.82822 0.546677 1.51678
                CHANNELS 3 Zrotation Xrotation Yrotation
                JOINT rRing2
                {
                  OFFSET -2.60934 -0.819778 -0.0198488
                  CHANNELS 3 Zrotation Xrotation Yrotation
                  End Site
                  {
                    OFFSET -2.33842 -0.294052 0.168128
                  }
                }
              }
              JOINT rPinky1
              {
                OFFSET -8.27202 -0.0477905 -0.4584
                CHANNELS 3 Zrotation Xrotation Yrotation
                JOINT rPinky2
                {
                  OFFSET -1.82734 -0.647385 -0.700984
                  CHANNELS 3 Zrotation Xrotation Yrotation
                  End Site
                  {
                    OFFSET -1.69225 -0.51767 -0.607171
                  }
                }
              }
            }
          }
        }
      }
      JOINT lCollar
      {
        OFFSET 2.68224 19.2634 -4.8768
        CHANNELS 3 Zrotation Xrotation Yrotation
        JOINT lShldr
        {
          OFFSET 8.77824 -1.95073 1.46304
          CHANNELS 3 Zrotation Xrotation Yrotation
          JOINT lForeArm
          {
            OFFSET 28.1742 -1.7115 0.48768
            CHANNELS 3 Zrotation Xrotation Yrotation
            JOINT lHand
            {
              OFFSET 22.5879 0.773209 7.07136
              CHANNELS 3 Zrotation Xrotation Yrotation
              JOINT lThumb1
              {
                OFFSET 1.2192 -0.487915 3.41376
                CHANNELS 3 Zrotation Xrotation Yrotation
                JOINT lThumb2
                {
                  OFFSET 3.37035 -0.52449 3.41376
                  CHANNELS 3 Zrotation Xrotation Yrotation
                  End Site
                  {
                    OFFSET 1.78271 -1.18214 1.43049
                  }
                }
              }
              JOINT lIndex1
              {
                OFFSET 7.75947 0.938293 5.60832
                CHANNELS 3 Zrotation Xrotation Yrotation
                JOINT lIndex2
                {
                  OFFSET 2.54057 -0.884171 1.56538
                  CHANNELS 3 Zrotation Xrotation Yrotation
                  End Site
                  {
                    OFFSET 1.62519 -0.234802 1.16502
                  }
                }
              }
              JOINT lMid1
              {
                OFFSET 8.24714 1.18213 3.41376
                CHANNELS 3 Zrotation Xrotation Yrotation
                JOINT lMid2
                {
                  OFFSET 3.10165 -0.590103 1.0647
                  CHANNELS 3 Zrotation Xrotation Yrotation
                  End Site
                  {
                    OFFSET 2.48547 -0.328903 0.83742
                  }
                }
              }
              JOINT lRing1
              {
                OFFSET 8.82822 0.546677 1.51678
                CHANNELS 3 Zrotation Xrotation Yrotation
                JOINT lRing2
                {
                  OFFSET 2.60934 -0.819778 -0.0198488
                  CHANNELS 3 Zrotation Xrotation Yrotation
                  End Site
                  {
                    OFFSET 2.33842 -0.294052 0.168128
                  }
                }
              }
              JOINT lPinky1
              {
                OFFSET 8.27202 -0.0477905 -0.4584
                CHANNELS 3 Zrotation Xrotation Yrotation
                JOINT lPinky2
                {
                  OFFSET 1.82734 -0.647385 -0.700984
                  CHANNELS 3 Zrotation Xrotation Yrotation
                  End Site
                  {
                    OFFSET 1.69225 -0.51767 -0.607171
                  }
                }
              }
            }
          }
        }
      }
    }
  }
  JOINT rButtock
  {
    OFFSET -8.77824 4.35084 1.2192
    CHANNELS 3 Zrotation Xrotation Yrotation
    JOINT rThigh
    {
      OFFSET 0 -1.70687 -2.19456
      CHANNELS 3 Zrotation Xrotation Yrotation
      JOINT rShin
      {
        OFFSET 0 -36.8199 0.73152
        CHANNELS 3 Zrotation Xrotation Yrotation
        JOINT rFoot
        {
          OFFSET 0.73152 -45.1104 -5.12064
          CHANNELS 3 Zrotation Xrotation Yrotation
          End Site
          {
            OFFSET -1.1221 -3.69964 12.103
          }
        }
      }
    }
  }
  JOINT lButtock
  {
    OFFSET 8.77824 4.35084 1.2192
    CHANNELS 3 Zrotation Xrotation Yrotation
    JOINT lThigh
    {
      OFFSET 0 -1.70687 -2.19456
      CHANNELS 3 Zrotation Xrotation Yrotation
      JOINT lShin
      {
        OFFSET 0 -36.8199 0.73152
        CHANNELS 3 Zrotation Xrotation Yrotation
        JOINT lFoot
        {
          OFFSET -0.73152 -45.1104 -5.12064
          CHANNELS 3 Zrotation Xrotation Yrotation
          End Site
          {
            OFFSET 1.1221 -3.69964 12.103
          }
        }
      }
    }
  }
}
MOTION
Frames:	7
Frame Time:	0.00833333
12.4086 41.3221 48.7906 -8.44618 -9.30932 175.041 5.44843 66.1059 -3.48252 5.43755 -1.12901 -5.30035 -1.17878 -12.5465 1.84475 2.75184 4.89581 4.48146 -0 0 0 -0 0 0 -7.64385e-015 7.77286e-014 1.90709e-014 28.2224 14.9588 61.3634 -12.291 -5.65454 22.1758 -1.23703 29.8898 4.63324 -3.18493e-010 1.05295e-010 -4.64987e-010 -5.59396e-010 1.80936e-010 -7.95083e-010 -3.18487e-010 1.05297e-010 -4.64997e-010 7.73091 5.47488 0.417314 -3.18494e-010 1.05293e-010 -4.64989e-010 2.90554 0.965183 0.102902 -3.18487e-010 1.05296e-010 -4.64991e-010 10.2786 0.731801 0.0259123 -3.185e-010 1.05297e-010 -4.64982e-010 2.22167 -0.733487 -0.20892 -7.71272e-015 7.7721e-014 1.88162e-014 -53.5496 6.98143 -50.2549 7.99589 -3.00665 -14.101 5.68164 54.0234 -11.1441 -9.40218e-011 -1.38639e-010 -2.0665e-010 -1.56247e-010 -2.12259e-010 -3.52742e-010 -9.40263e-011 -1.38636e-010 -2.06637e-010 -7.73091 5.47488 -0.417314 -9.40214e-011 -1.38638e-010 -2.06642e-010 -2.90554 0.965183 -0.102902 -9.40282e-011 -1.38638e-010 -2.06646e-010 -10.2786 0.731801 -0.0259123 -9.40174e-011 -1.38639e-010 -2.06652e-010 -2.22167 -0.733487 0.20892 -2.03217e-016 0 -3.88251e-019 -176.622 -62.0062 171.238 -175.305 72.1896 175.285 -9.44588 -3.24232 -28.6027 2.03217e-016 0 3.88251e-019 123.872 -82.5423 129.84 177.421 47.5979 -178.388 11.1285 8.69453 40.3309 
12.4277 40.9705 48.122 -8.53438 -8.81523 175.141 6.13864 65.8369 -4.32944 5.01134 -1.29279 -5.36068 -1.09185 -12.5383 2.00115 3.1763 5.51668 4.77868 -0 0 0 -0 0 0 5.135e-014 2.60959e-013 1.51365e-013 27.8288 15.5863 61.0957 -12.6762 -5.93275 22.9301 -1.16611 29.1101 4.48839 5.62538e-010 2.26642e-010 -1.20015e-009 9.44192e-010 3.99476e-010 -2.08706e-009 5.62543e-010 2.26645e-010 -1.20016e-009 7.73091 5.47488 0.417314 5.62536e-010 2.2664e-010 -1.20016e-009 2.90554 0.965183 0.102902 5.62541e-010 2.26643e-010 -1.20016e-009 10.2786 0.731801 0.0259123 5.62531e-010 2.26645e-010 -1.20016e-009 2.22167 -0.733487 -0.20892 5.13195e-014 2.6095e-013 1.51173e-013 -51.8284 8.74324 -49.0483 8.55289 -3.30066 -15.1269 4.96055 51.6868 -10.2354 7.92741e-011 -1.86751e-011 -2.04969e-009 6.15523e-011 -3.37979e-011 -3.52982e-009 7.92677e-011 -1.86718e-011 -2.04968e-009 -7.73091 5.47488 -0.417314 7.92741e-011 -1.86744e-011 -2.04968e-009 -2.90554 0.965183 -0.102902 7.92647e-011 -1.86744e-011 -2.04968e-009 -10.2786 0.731801 -0.0259123 7.92784e-011 -1.86757e-011 -2.04969e-009 -2.22167 -0.733487 0.20892 -2.03217e-016 0 -3.88251e-019 -176.891 -62.068 171.139 -174.706 74.5522 174.556 -8.70376 -2.63033 -28.1482 2.03217e-016 0 3.88251e-019 120.278 -82.0812 126.292 177.444 46.6106 -178.396 10.8899 9.57546 40.2851 
12.4508 40.6178 47.4636 -8.59104 -8.35969 175.198 6.66684 65.555 -4.85456 4.73013 -1.31671 -5.39205 -1.00276 -12.6455 2.08182 3.47939 6.03465 4.9122 -0 0 0 -0 0 0 7.99182e-014 3.56227e-013 2.14538e-013 27.5111 15.9332 60.7028 -13.0833 -6.23796 23.7271 -1.09403 28.2931 4.33866 1.08806e-009 2.52384e-010 -1.51063e-009 1.8436e-009 4.49107e-010 -2.63652e-009 1.08806e-009 2.52386e-010 -1.51064e-009 7.73091 5.47488 0.417314 1.08805e-009 2.52381e-010 -1.51063e-009 2.90554 0.965183 0.102902 1.08806e-009 2.52384e-010 -1.51063e-009 10.2786 0.731801 0.0259123 1.08805e-009 2.52387e-010 -1.51063e-009 2.22167 -0.733487 -0.20892 7.991e-014 3.56218e-013 2.14389e-013 -50.4415 10.4096 -48.0982 9.18082 -3.6582 -16.2739 4.39629 49.5861 -9.50034 1.68662e-010 6.85664e-011 -2.95002e-009 1.73971e-010 9.86894e-011 -5.08168e-009 1.68655e-010 6.85696e-011 -2.95001e-009 -7.73091 5.47488 -0.417314 1.68662e-010 6.85669e-011 -2.95001e-009 -2.90554 0.965183 -0.102902 1.68651e-010 6.8567e-011 -2.95002e-009 -10.2786 0.731801 -0.0259123 1.68667e-010 6.85652e-011 -2.95002e-009 -2.22167 -0.733487 0.20892 -2.03217e-016 0 -3.88251e-019 -177.125 -62.1625 171.095 -173.952 76.7186 173.689 -8.05332 -2.1375 -27.655 2.03217e-016 0 3.88251e-019 117.264 -81.5513 123.277 177.459 45.6585 -178.374 10.5508 10.522 40.1234 
12.4718 40.2686 46.8074 -8.61804 -7.94463 175.214 6.98642 65.2485 -4.93506 4.65007 -1.11724 -5.38633 -0.908213 -12.92 2.0611 3.62263 6.42501 4.82389 -0 0 0 -0 0 0 6.42902e-014 3.19538e-013 1.74675e-013 27.2473 15.8774 60.1307 -13.5151 -6.5719 24.5792 -1.02017 27.4251 4.18182 1.06249e-009 1.09622e-010 -1.1596e-009 1.80649e-009 2.01415e-010 -2.02968e-009 1.06249e-009 1.09623e-010 -1.1596e-009 7.73091 5.47488 0.417314 1.06249e-009 1.09618e-010 -1.15959e-009 2.90554 0.965183 0.102902 1.06249e-009 1.09622e-010 -1.1596e-009 10.2786 0.731801 0.0259123 1.06248e-009 1.09625e-010 -1.15959e-009 2.22167 -0.733487 -0.20892 6.42843e-014 3.1953e-013 1.74541e-013 -49.407 11.9515 -47.4793 9.89755 -4.09 -17.5933 3.95111 47.7673 -8.90757 1.39076e-010 1.06985e-010 -2.40121e-009 1.41378e-010 1.624e-010 -4.13545e-009 1.39068e-010 1.06987e-010 -2.4012e-009 -7.73091 5.47488 -0.417314 1.39076e-010 1.06985e-010 -2.4012e-009 -2.90554 0.965183 -0.102902 1.39065e-010 1.06985e-010 -2.4012e-009 -10.2786 0.731801 -0.0259123 1.3908e-010 1.06983e-010 -2.40121e-009 -2.22167 -0.733487 0.20892 -2.03217e-016 0 -3.88251e-019 -177.319 -62.2948 171.1 -173.027 78.6896 172.672 -7.5521 -1.89529 -27.0937 2.03217e-016 0 3.88251e-019 114.913 -80.9432 120.861 177.467 44.7386 -178.315 10.0732 11.5889 39.8173 
12.4972 39.9284 46.1486 -8.60906 -7.58187 175.2 7.17665 64.9192 -4.74914 4.66578 -0.795028 -5.35335 -0.799657 -13.3344 1.97549 3.68377 6.75399 4.58729 -0 0 0 -0 0 0 2.34896e-014 2.00278e-013 7.23172e-014 27.033 15.5697 59.4568 -13.9682 -6.93044 25.4876 -0.944924 26.4904 4.01597 7.12796e-010 -1.41697e-010 -3.99701e-010 1.21893e-009 -2.37521e-010 -7.08502e-010 7.128e-010 -1.41699e-010 -3.99707e-010 7.73091 5.47488 0.417314 7.12794e-010 -1.41703e-010 -3.99693e-010 2.90554 0.965183 0.102902 7.12797e-010 -1.41698e-010 -3.997e-010 10.2786 0.731801 0.0259123 7.12785e-010 -1.41695e-010 -3.99691e-010 2.22167 -0.733487 -0.20892 2.34749e-014 2.00273e-013 7.21837e-014 -48.4905 13.4671 -47.0713 10.692 -4.5843 -19.0909 3.55948 46.0191 -8.373 4.71891e-011 1.21568e-010 -9.56898e-010 3.79908e-011 1.93422e-010 -1.64593e-009 4.71824e-011 1.21569e-010 -9.5689e-010 -7.73091 5.47488 -0.417314 4.71892e-011 1.21567e-010 -9.56899e-010 -2.90554 0.965183 -0.102902 4.71804e-011 1.21568e-010 -9.56896e-010 -10.2786 0.731801 -0.0259123 4.71942e-011 1.21567e-010 -9.56905e-010 -2.22167 -0.733487 0.20892 -2.03217e-016 0 -3.88251e-019 -177.47 -62.4598 171.156 -171.857 80.5051 171.422 -7.13301 -1.78971 -26.4593 2.03217e-016 0 3.88251e-019 113.167 -80.2592 119.02 177.471 43.8502 -178.229 9.49937 12.7656 39.4109 
12.5217 39.599 45.4802 -8.56078 -7.25852 175.147 7.32296 64.5998 -4.47627 4.72995 -0.462513 -5.30412 -0.692926 -13.7924 1.85503 3.70689 7.02887 4.27576 -0 0 0 -0 0 0 -2.57677e-014 6.0394e-014 -4.66309e-014 26.8983 15.127 58.7334 -14.4304 -7.30721 26.4252 -0.871993 25.5314 3.84889 3.08794e-010 -3.82514e-010 4.25723e-010 5.3913e-010 -6.58331e-010 7.27431e-010 3.08798e-010 -3.82518e-010 4.25719e-010 7.73091 5.47488 0.417314 3.08792e-010 -3.8252e-010 4.25734e-010 2.90554 0.965183 0.102902 3.08797e-010 -3.82515e-010 4.25728e-010 10.2786 0.731801 0.0259123 3.08782e-010 -3.82512e-010 4.25741e-010 2.22167 -0.733487 -0.20892 -2.58e-014 6.03924e-014 -4.67719e-014 -47.7411 14.858 -46.7589 11.5046 -5.1124 -20.6511 3.2305 44.4067 -7.91019 -7.06021e-011 1.29801e-010 6.58653e-010 -1.02683e-010 2.15997e-010 1.13902e-009 -7.06079e-011 1.29802e-010 6.58661e-010 -7.73091 5.47488 -0.417314 -7.06018e-011 1.29799e-010 6.58648e-010 -2.90554 0.965183 -0.102902 -7.06087e-011 1.29801e-010 6.58655e-010 -10.2786 0.731801 -0.0259123 -7.05965e-011 1.298e-010 6.58646e-010 -2.22167 -0.733487 0.20892 -2.03217e-016 0 -3.88251e-019 -177.593 -62.6501 171.277 -170.35 82.1325 169.842 -6.70872 -1.61482 -25.816 2.03217e-016 0 3.88251e-019 111.7 -79.5453 117.441 177.474 43 -178.13 8.90918 13.957 38.9409 
12.5456 39.2745 44.797 -8.46984 -6.96172 175.047 7.50041 64.3238 -4.28648 4.79577 -0.232182 -5.24948 -0.602469 -14.1979 1.72996 3.7342 7.25689 3.96288 -0 0 0 -0 0 0 -6.67656e-014 -3.81669e-014 -1.36267e-013 26.8795 14.6751 58.0073 -14.8912 -7.69648 27.3649 -0.804003 24.5909 3.68768 1.20301e-010 -4.93768e-010 9.73339e-010 2.25274e-010 -8.51641e-010 1.67856e-009 1.20305e-010 -4.93773e-010 9.73336e-010 7.73091 5.47488 0.417314 1.203e-010 -4.93775e-010 9.73352e-010 2.90554 0.965183 0.102902 1.20305e-010 -4.93769e-010 9.73347e-010 10.2786 0.731801 0.0259123 1.20289e-010 -4.93766e-010 9.73361e-010 2.22167 -0.733487 -0.20892 -6.68221e-014 -3.81669e-014 -1.36416e-013 -47.2176 16.0311 -46.4164 12.2823 -5.64861 -22.1576 2.96928 42.9959 -7.52956 -1.77903e-010 1.4917e-010 1.72119e-009 -2.47135e-010 2.54365e-010 2.97155e-009 -1.77908e-010 1.49169e-010 1.7212e-009 -7.73091 5.47488 -0.417314 -1.77902e-010 1.49167e-010 1.72119e-009 -2.90554 0.965183 -0.102902 -1.77908e-010 1.49169e-010 1.72119e-009 -10.2786 0.731801 -0.0259123 -1.77897e-010 1.49168e-010 1.72119e-009 -2.22167 -0.733487 0.20892 -2.03217e-016 0 -3.88251e-019 -177.703 -62.8585 171.476 -168.398 83.5388 167.819 -6.20005 -1.16079 -25.2296 2.03217e-016 0 3.88251e-019 110.231 -78.8419 115.856 177.476 42.1948 -178.032 8.37709 15.063 38.4381 
